<svg xmlns="http://www.w3.org/2000/svg" xmlns:xlink="http://www.w3.org/1999/xlink" width="500" zoomAndPan="magnify" viewBox="0 0 375 374.999991" height="500" preserveAspectRatio="xMidYMid meet" version="1.0"><defs><g/><clipPath id="c9e8b47297"><path d="M 65.652344 167.34375 L 309.402344 167.34375 L 309.402344 207.84375 L 65.652344 207.84375 Z M 65.652344 167.34375 " clip-rule="nonzero"/></clipPath></defs><g fill="#ffffff" fill-opacity="1"><g transform="translate(148.381665, 253.874983)"><g><path d="M 38.085938 -53.515625 L 25.78125 -131.929688 C 25.488281 -134.175781 23.828125 -135.152344 21.875 -135.152344 L 2.246094 -135.152344 C 0.488281 -135.152344 -0.0976562 -133.6875 0.390625 -131.34375 L 27.539062 -3.417969 C 28.125 -1.074219 29.296875 0 31.347656 0 L 46.875 0 C 48.828125 0 50 -1.074219 50.585938 -3.417969 L 77.734375 -131.539062 C 78.21875 -133.6875 77.734375 -135.152344 75.878906 -135.152344 L 56.25 -135.152344 C 54.394531 -135.152344 52.636719 -134.175781 52.34375 -131.929688 L 40.136719 -53.515625 L 39.0625 -42.089844 Z M 38.085938 -53.515625 "/></g></g></g><g clip-path="url(#c9e8b47297)"><path fill="#000000" d="M 65.65625 167.34375 L 309.398438 167.34375 L 309.398438 207.84375 L 65.65625 207.84375 L 65.65625 167.34375 " fill-opacity="1" fill-rule="nonzero"/></g><g fill="#ffffff" fill-opacity="1"><g transform="translate(150.100974, 193.875045)"><g><path d="M 3.425781 -4.8125 L 2.320312 -11.867188 C 2.292969 -12.070312 2.144531 -12.160156 1.96875 -12.160156 L 0.203125 -12.160156 C 0.0429688 -12.160156 -0.0078125 -12.027344 0.0351562 -11.816406 L 2.476562 -0.308594 C 2.53125 -0.0976562 2.636719 0 2.820312 0 L 4.21875 0 C 4.394531 0 4.5 -0.0976562 4.550781 -0.308594 L 6.992188 -11.832031 C 7.035156 -12.027344 6.992188 -12.160156 6.828125 -12.160156 L 5.058594 -12.160156 C 4.894531 -12.160156 4.734375 -12.070312 4.707031 -11.867188 L 3.609375 -4.8125 L 3.515625 -3.785156 Z M 3.425781 -4.8125 "/></g></g></g><g fill="#ffffff" fill-opacity="1"><g transform="translate(166.406396, 193.875045)"><g><path d="M 2.96875 -2.117188 L 2.96875 -5.09375 L 5.535156 -5.09375 C 5.703125 -5.09375 5.816406 -5.183594 5.816406 -5.394531 L 5.816406 -6.898438 C 5.816406 -7.117188 5.683594 -7.203125 5.535156 -7.203125 L 2.96875 -7.203125 L 2.96875 -10.023438 L 6.183594 -10.023438 C 6.34375 -10.023438 6.429688 -10.128906 6.429688 -10.339844 L 6.429688 -11.832031 C 6.429688 -12.054688 6.34375 -12.160156 6.183594 -12.160156 L 0.929688 -12.160156 C 0.746094 -12.160156 0.632812 -12.027344 0.632812 -11.816406 L 0.632812 -0.332031 C 0.632812 -0.121094 0.730469 0 0.929688 0 L 6.230469 0 C 6.371094 0 6.484375 -0.0976562 6.484375 -0.308594 L 6.484375 -1.820312 C 6.484375 -2.019531 6.371094 -2.117188 6.230469 -2.117188 Z M 2.96875 -2.117188 "/></g></g></g><g fill="#ffffff" fill-opacity="1"><g transform="translate(182.360485, 193.875045)"><g><path d="M 6.835938 0 C 7.027344 0 7.117188 -0.175781 7.117188 -0.351562 L 7.117188 -9.304688 C 7.117188 -10.992188 5.585938 -12.351562 3.832031 -12.351562 C 2.074219 -12.351562 0.554688 -10.992188 0.554688 -9.304688 L 0.554688 -0.34375 C 0.554688 -0.15625 0.648438 0 0.78125 0 L 2.636719 0 C 2.835938 0 2.898438 -0.148438 2.898438 -0.34375 L 2.898438 -9.171875 C 2.898438 -9.726562 3.242188 -10.226562 3.839844 -10.226562 C 4.429688 -10.226562 4.769531 -9.726562 4.769531 -9.171875 L 4.769531 -0.351562 C 4.769531 -0.167969 4.875 0 5.050781 0 Z M 6.835938 0 "/></g></g></g><g fill="#ffffff" fill-opacity="1"><g transform="translate(199.298309, 193.875045)"><g><path d="M 7.003906 -9.296875 C 7.003906 -11.210938 5.472656 -12.34375 3.707031 -12.34375 C 1.949219 -12.34375 0.4375 -11.203125 0.4375 -9.296875 L 0.4375 -2.855469 C 0.4375 -0.992188 1.949219 0.191406 3.707031 0.191406 C 5.472656 0.191406 7.003906 -0.949219 7.003906 -2.855469 Z M 3.726562 -10.234375 C 4.3125 -10.234375 4.664062 -9.726562 4.664062 -9.164062 L 4.664062 -2.925781 C 4.664062 -2.371094 4.3125 -1.925781 3.707031 -1.925781 C 3.109375 -1.925781 2.777344 -2.425781 2.777344 -2.976562 L 2.777344 -9.164062 C 2.777344 -9.726562 3.128906 -10.234375 3.726562 -10.234375 Z M 3.726562 -10.234375 "/></g></g></g><g fill="#ffffff" fill-opacity="1"><g transform="translate(216.007763, 193.875045)"><g><path d="M 8.996094 -0.351562 C 8.996094 -0.167969 9.09375 0 9.277344 0 L 11.0625 0 C 11.253906 0 11.332031 -0.175781 11.332031 -0.351562 L 11.332031 -9.304688 C 11.332031 -10.992188 9.804688 -12.351562 8.046875 -12.351562 C 7.257812 -12.351562 6.511719 -12.078125 5.9375 -11.625 C 5.359375 -12.078125 4.613281 -12.351562 3.832031 -12.351562 C 2.074219 -12.351562 0.554688 -10.992188 0.554688 -9.304688 L 0.554688 -0.34375 C 0.554688 -0.15625 0.660156 0 0.78125 0 L 2.636719 0 C 2.847656 0 2.898438 -0.148438 2.898438 -0.34375 L 2.898438 -9.171875 C 2.898438 -9.726562 3.242188 -10.226562 3.839844 -10.226562 C 4.429688 -10.226562 4.769531 -9.726562 4.769531 -9.171875 L 4.769531 -0.34375 C 4.769531 -0.15625 4.882812 0 5.007812 0 L 6.863281 0 C 7.070312 0 7.117188 -0.148438 7.117188 -0.332031 L 7.117188 -9.207031 C 7.132812 -9.742188 7.476562 -10.226562 8.054688 -10.226562 C 8.644531 -10.226562 8.996094 -9.726562 8.996094 -9.171875 Z M 8.996094 -0.351562 "/></g></g></g><path stroke-linecap="butt" transform="matrix(0.750281, 0, 0, 0.75, 93.783896, 168.092802)" fill="none" stroke-linejoin="miter" d="M 0.00167978 0.00126432 L 249.907947 0.00126432 " stroke="#ffffff" stroke-width="2" stroke-opacity="1" stroke-miterlimit="4"/><path stroke-linecap="butt" transform="matrix(0.750281, 0, 0, 0.75, 93.783896, 206.907234)" fill="none" stroke-linejoin="miter" d="M 0.00167978 -0.00131148 L 249.907947 -0.00131148 " stroke="#ffffff" stroke-width="2" stroke-opacity="1" stroke-miterlimit="4"/></svg>